<svg width="360" height="361" viewBox="0 0 360 361" fill="none" xmlns="http://www.w3.org/2000/svg">
<path fill-rule="evenodd" clip-rule="evenodd" d="M0 0.416016C49.7056 0.416016 90 40.7103 90 90.416C40.2944 90.416 0 50.1218 0 0.416016ZM180 0.416016C130.294 0.416016 90 40.7103 90 90.416C40.2944 90.416 0 130.71 0 180.416C0 230.121 40.2944 270.416 90 270.416C40.2944 270.416 0 310.711 0 360.416C49.7056 360.416 90 320.121 90 270.416C90 320.121 130.294 360.416 180 360.416C229.705 360.416 270 320.121 270 270.416C270 320.121 310.295 360.416 360 360.416C360 310.711 319.705 270.416 270 270.416C319.705 270.416 360 230.121 360 180.416C360 130.71 319.705 90.416 270 90.416C319.705 90.416 360 50.1218 360 0.416016C310.295 0.416016 270 40.7103 270 90.416C270 40.7103 229.705 0.416016 180 0.416016ZM270 270.416C270 220.711 229.705 180.416 180 180.416C180 230.121 220.295 270.416 270 270.416ZM180 180.416C229.705 180.416 270 140.122 270 90.416C270 140.122 310.295 180.416 360 180.416C310.295 180.416 270 220.711 270 270.416C220.295 270.416 180 310.711 180 360.416C180 310.711 139.706 270.416 90 270.416C139.706 270.416 180 230.121 180 180.416ZM180 180.416C130.294 180.416 90 220.711 90 270.416C90 220.711 49.7056 180.416 0 180.416C49.7056 180.416 90 140.122 90 90.416C90 140.122 130.294 180.416 180 180.416ZM180 180.416C180 130.71 220.295 90.416 270 90.416C220.295 90.416 180 50.1218 180 0.416016C180 50.1218 139.706 90.416 90 90.416C139.706 90.416 180 130.71 180 180.416Z" fill="#FF9500" fill-opacity="0.06"/>
</svg>
