<svg width="18" height="18" viewBox="0 0 18 18" fill="none" xmlns="http://www.w3.org/2000/svg">
<path d="M9.02916 6.7915C8.40177 6.7915 7.80008 7.04073 7.35644 7.48437C6.91281 7.928 6.66358 8.52969 6.66358 9.15708C6.66358 9.78447 6.91281 10.3862 7.35644 10.8298C7.80008 11.2734 8.40177 11.5227 9.02916 11.5227C9.65655 11.5227 10.2582 11.2734 10.7019 10.8298C11.1455 10.3862 11.3947 9.78447 11.3947 9.15708C11.3947 8.52969 11.1455 7.928 10.7019 7.48437C10.2582 7.04073 9.65655 6.7915 9.02916 6.7915Z" fill="#FFE8AA"/>
<path fill-rule="evenodd" clip-rule="evenodd" d="M5.22283 2.66624C7.75261 2.38599 10.3056 2.38599 12.8354 2.66624C14.2174 2.82053 15.3317 3.90856 15.494 5.2957C15.7938 7.86088 15.7938 10.4522 15.494 13.0174C15.3317 14.4046 14.2174 15.4926 12.8361 15.6476C10.3061 15.9279 7.75285 15.9279 5.22283 15.6476C3.84078 15.4926 2.72655 14.4046 2.56426 13.0181C2.2644 10.4527 2.2644 7.86112 2.56426 5.2957C2.72655 3.90856 3.84078 2.82053 5.22283 2.66624ZM12.668 4.78989C12.475 4.78989 12.2899 4.86657 12.1534 5.00306C12.0169 5.13954 11.9402 5.32465 11.9402 5.51767C11.9402 5.71069 12.0169 5.8958 12.1534 6.03229C12.2899 6.16877 12.475 6.24545 12.668 6.24545C12.861 6.24545 13.0461 6.16877 13.1826 6.03229C13.3191 5.8958 13.3958 5.71069 13.3958 5.51767C13.3958 5.32465 13.3191 5.13954 13.1826 5.00306C13.0461 4.86657 12.861 4.78989 12.668 4.78989ZM5.57216 9.15656C5.57216 8.23972 5.93637 7.36044 6.58468 6.71213C7.23298 6.06383 8.11227 5.69962 9.02911 5.69962C9.94594 5.69962 10.8252 6.06383 11.4735 6.71213C12.1218 7.36044 12.4861 8.23972 12.4861 9.15656C12.4861 10.0734 12.1218 10.9527 11.4735 11.601C10.8252 12.2493 9.94594 12.6135 9.02911 12.6135C8.11227 12.6135 7.23298 12.2493 6.58468 11.601C5.93637 10.9527 5.57216 10.0734 5.57216 9.15656Z" fill="#FFE8AA"/>
</svg>
